Track,Event Type,Midi Note,Note Name,Velocity,Duration (seconds),Time (seconds)
0,note_on,60,C4,0.6299212598425197,0.17241375000000003,2.4137925
0,note_on,60,C4,0.6299212598425197,0.17241375000000003,2.58620625
0,note_on,60,C4,0.6299212598425197,0.17241375000000003,2.75862
0,note_on,60,C4,0.6299212598425197,0.17241375000000003,3.1034475
0,note_on,60,C4,0.6299212598425197,0.17241375000000003,3.27586125
0,note_on,60,C4,0.6299212598425197,0.17241375000000003,3.6206887500000002
0,note_on,60,C4,0.6299212598425197,0.17241375000000003,3.7931025000000003
0,note_on,60,C4,0.6299212598425197,0.17241375000000048,5.1724125
0,note_on,60,C4,0.6299212598425197,0.1724137499999996,5.344826250000001
0,note_on,60,C4,0.6299212598425197,0.1724137499999996,5.51724
0,note_on,60,C4,0.6299212598425197,0.1724137499999996,5.8620675
0,note_on,60,C4,0.6299212598425197,0.17241375000000048,6.03448125
0,note_on,60,C4,0.6299212598425197,0.17241375000000048,6.37930875
0,note_on,60,C4,0.6299212598425197,0.1724137499999996,6.5517225
0,note_on,60,C4,0.6299212598425197,0.17241375000000048,7.931032500000001
0,note_on,60,C4,0.6299212598425197,0.1724137499999987,8.103446250000001
0,note_on,60,C4,0.6299212598425197,0.17241375000000048,8.27586
0,note_on,60,C4,0.6299212598425197,0.1724137499999987,8.6206875
0,note_on,60,C4,0.6299212598425197,0.17241375000000048,8.79310125
0,note_on,60,C4,0.6299212598425197,0.17241375000000048,9.13792875
0,note_on,60,C4,0.6299212598425197,0.1724137499999987,9.3103425
0,note_on,60,C4,0.6299212598425197,0.1724137499999987,10.689652500000001
0,note_on,60,C4,0.6299212598425197,0.17241375000000048,10.86206625
0,note_on,60,C4,0.6299212598425197,0.17241375000000048,11.03448
0,note_on,60,C4,0.6299212598425197,0.17241375000000048,11.3793075
0,note_on,60,C4,0.6299212598425197,0.17241375000000048,11.55172125
0,note_on,60,C4,0.6299212598425197,0.1724137499999987,11.896548750000001
0,note_on,60,C4,0.6299212598425197,0.17241375000000048,12.0689625
0,note_on,60,C4,0.6299212598425197,0.17241375000000048,13.4482725
0,note_on,60,C4,0.6299212598425197,0.17241375000000048,13.62068625
0,note_on,60,C4,0.6299212598425197,0.1724137499999987,13.7931
0,note_on,60,C4,0.6299212598425197,0.17241375000000048,13.96551375
0,note_on,60,C4,0.6299212598425197,0.17241375000000048,14.1379275
0,note_on,60,C4,0.6299212598425197,0.17241375000000048,14.31034125
0,note_on,60,C4,0.6299212598425197,0.1724137499999987,14.482755000000001
0,note_on,60,C4,0.6299212598425197,0.17241375000000048,14.65516875
0,note_on,60,C4,0.6299212598425197,0.17241375000000048,14.8275825
0,note_on,60,C4,0.6299212598425197,0.17241375000000048,14.99999625
0,note_on,60,C4,0.6299212598425197,0.1724137499999987,15.172410000000001
0,note_on,60,C4,0.6299212598425197,0.17241375000000048,15.34482375
0,note_on,60,C4,0.6299212598425197,0.17241375000000048,15.5172375
0,note_on,60,C4,0.6299212598425197,0.17241375000000048,15.68965125
0,note_on,60,C4,0.6299212598425197,0.17241375000000048,15.862065000000001
0,note_on,60,C4,0.6299212598425197,0.17241375000000048,16.03447875
0,note_on,60,C4,0.6299212598425197,0.17241374999999692,16.206892500000002
0,note_on,60,C4,0.6299212598425197,0.17241375000000048,16.37930625
0,note_on,60,C4,0.6299212598425197,0.17241375000000048,16.8965475
0,note_on,60,C4,0.6299212598425197,0.17241375000000048,17.5862025
0,note_on,60,C4,0.6299212598425197,0.17241375000000048,17.75861625
0,note_on,60,C4,0.6299212598425197,0.17241375000000048,17.93103
0,note_on,60,C4,0.6299212598425197,0.17241375000000048,18.9655125
0,note_on,60,C4,0.6299212598425197,0.17241375000000048,19.13792625
0,note_on,60,C4,0.6299212598425197,0.17241375000000048,19.31034
0,note_on,60,C4,0.6299212598425197,0.17241375000000048,19.48275375
0,note_on,60,C4,0.6299212598425197,0.17241375000000048,19.6551675
0,note_on,60,C4,0.6299212598425197,0.17241375000000048,19.82758125
0,note_on,60,C4,0.6299212598425197,0.17241374999999692,19.999995000000002
0,note_on,60,C4,0.6299212598425197,0.17241375000000048,20.17240875
0,note_on,60,C4,0.6299212598425197,0.17241375000000048,20.3448225
0,note_on,60,C4,0.6299212598425197,0.17241375000000048,20.51723625
0,note_on,60,C4,0.6299212598425197,0.17241375000000048,20.68965
0,note_on,60,C4,0.6299212598425197,0.17241375000000048,20.86206375
0,note_on,60,C4,0.6299212598425197,0.17241375000000048,21.0344775
0,note_on,60,C4,0.6299212598425197,0.17241375000000048,21.20689125
0,note_on,60,C4,0.6299212598425197,0.17241374999999692,21.379305000000002
0,note_on,60,C4,0.6299212598425197,0.17241375000000048,21.7241325
0,note_on,60,C4,0.6299212598425197,0.17241375000000048,21.89654625
0,note_on,60,C4,0.6299212598425197,0.17241375000000048,22.4137875
0,note_on,60,C4,0.6299212598425197,0.17241375000000048,22.758615
0,note_on,60,C4,0.6299212598425197,0.17241375000000048,22.93102875
0,note_on,60,C4,0.6299212598425197,0.17241375000000048,23.1034425
0,note_on,60,C4,0.6299212598425197,0.17241375000000048,23.27585625
0,note_on,60,C4,0.6299212598425197,0.17241375000000048,23.44827
0,note_on,60,C4,0.6299212598425197,0.17241375000000048,23.793097500000002
0,note_on,60,C4,0.6299212598425197,0.17241375000000048,24.137925
0,note_on,60,C4,0.6299212598425197,0.17241375000000048,24.31033875
0,note_on,60,C4,0.6299212598425197,0.17241375000000048,24.4827525
0,note_on,60,C4,0.6299212598425197,0.17241375000000048,24.65516625
0,note_on,60,C4,0.6299212598425197,0.17241375000000048,24.82758
0,note_on,60,C4,0.6299212598425197,0.17241374999999692,25.172407500000002
0,note_on,60,C4,0.6299212598425197,0.17241375000000048,25.517235
0,note_on,60,C4,0.6299212598425197,0.17241375000000048,25.68964875
0,note_on,60,C4,0.6299212598425197,0.17241375000000048,25.8620625
0,note_on,60,C4,0.6299212598425197,0.17241375000000048,26.20689
0,note_on,60,C4,0.6299212598425197,0.17241375000000048,26.379303750000002
0,note_on,60,C4,0.6299212598425197,0.17241374999999692,26.551717500000002
0,note_on,60,C4,0.6299212598425197,0.17241375000000048,26.72413125
0,note_on,60,C4,0.6299212598425197,0.17241375000000048,26.896545
0,note_on,60,C4,0.6299212598425197,0.17241375000000048,27.2413725
0,note_on,60,C4,0.6299212598425197,0.17241375000000048,27.41378625
0,note_on,60,C4,0.6299212598425197,0.17241375000000048,27.9310275
0,note_on,60,C4,0.6299212598425197,0.17241375000000048,28.6206825
0,note_on,60,C4,0.6299212598425197,0.17241375000000048,28.79309625
0,note_on,60,C4,0.6299212598425197,0.17241375000000048,29.3103375
0,note_on,60,C4,0.6299212598425197,0.17241375000000048,29.9999925
0,note_on,60,C4,0.6299212598425197,0.17241375000000048,30.17240625
0,note_on,60,C4,0.6299212598425197,0.17241374999999692,30.344820000000002
0,note_on,60,C4,0.6299212598425197,0.17241375000000048,30.6896475
0,note_on,60,C4,0.6299212598425197,0.17241375000000048,30.86206125
0,note_on,60,C4,0.6299212598425197,0.17241375000000048,31.034475
0,note_on,60,C4,0.6299212598425197,0.17241375000000048,31.20688875
0,note_on,60,C4,0.6299212598425197,0.17241375000000048,31.3793025
0,note_on,60,C4,0.6299212598425197,0.17241374999999692,31.724130000000002
0,note_on,60,C4,0.6299212598425197,0.17241374999999692,32.0689575
0,note_on,60,C4,0.6299212598425197,0.17241375000000403,32.24137125
0,note_on,60,C4,0.6299212598425197,0.17241374999999692,32.413785000000004
0,note_on,60,C4,0.6299212598425197,0.17241374999999692,32.58619875
0,note_on,60,C4,0.6299212598425197,0.17241375000000403,32.7586125
0,note_on,60,C4,0.6299212598425197,0.17241374999999692,32.93102625
0,note_on,60,C4,0.6299212598425197,0.17241375000000403,33.4482675
0,note_on,60,C4,0.6299212598425197,0.17241374999999692,34.1379225
0,note_on,60,C4,0.6299212598425197,0.17241375000000403,34.31033625
0,note_on,60,C4,0.6299212598425197,0.17241375000000403,34.65516375
0,note_on,60,C4,0.6299212598425197,0.17241374999999692,34.827577500000004
0,note_on,60,C4,0.6299212598425197,0.17241374999999692,34.99999125
0,note_on,60,C4,0.6299212598425197,0.17241375000000403,35.172405
0,note_on,60,C4,0.6299212598425197,0.17241374999999692,35.34481875
0,note_on,60,C4,0.6299212598425197,0.17241375000000403,35.5172325
0,note_on,60,C4,0.6299212598425197,0.17241375000000403,35.86206
0,note_on,60,C4,0.6299212598425197,0.17241374999999692,36.551715
0,note_on,60,C4,0.6299212598425197,0.17241374999999692,37.24137
0,note_on,60,C4,0.6299212598425197,0.17241375000000403,37.41378375
0,note_on,60,C4,0.6299212598425197,0.17241374999999692,37.586197500000004
0,note_on,60,C4,0.6299212598425197,0.17241374999999692,37.75861125
0,note_on,60,C4,0.6299212598425197,0.17241375000000403,37.931025
0,note_on,60,C4,0.6299212598425197,0.17241375000000403,38.2758525
0,note_on,60,C4,0.6299212598425197,0.17241374999999692,38.44826625
0,note_on,60,C4,0.6299212598425197,0.17241374999999692,38.793093750000004
0,note_on,60,C4,0.6299212598425197,0.17241374999999692,39.999990000000004
0,note_on,60,C4,0.6299212598425197,0.17241374999999692,40.17240375
0,note_on,60,C4,0.6299212598425197,0.17241375000000403,40.3448175
0,note_on,60,C4,0.6299212598425197,0.17241374999999692,40.51723125
0,note_on,60,C4,0.6299212598425197,0.17241375000000403,40.689645
0,note_on,60,C4,0.6299212598425197,0.17241375000000403,41.0344725
0,note_on,60,C4,0.6299212598425197,0.17241374999999692,41.3793
0,note_on,60,C4,0.6299212598425197,0.17241374999999692,42.068955
0,note_on,60,C4,0.6299212598425197,0.17241374999999692,42.758610000000004
0,note_on,60,C4,0.6299212598425197,0.17241374999999692,42.93102375
0,note_on,60,C4,0.6299212598425197,0.17241375000000403,43.7930925
0,note_on,60,C4,0.6299212598425197,0.17241374999999692,43.965506250000004
0,note_on,60,C4,0.6299212598425197,0.17241374999999692,44.13792
0,note_on,60,C4,0.6299212598425197,0.17241375000000403,44.31033375
0,note_on,60,C4,0.6299212598425197,0.17241374999999692,44.4827475
0,note_on,60,C4,0.6299212598425197,0.17241375000000403,44.65516125
0,note_on,60,C4,0.6299212598425197,0.17241374999999692,44.827575
0,note_on,60,C4,0.6299212598425197,0.17241374999999692,45.172402500000004
0,note_on,60,C4,0.6299212598425197,0.17241374999999692,45.34481625
0,note_on,60,C4,0.6299212598425197,0.17241374999999692,45.68964375
0,note_on,60,C4,0.6299212598425197,0.17241375000000403,45.8620575
0,note_on,60,C4,0.6299212598425197,0.17241374999999692,46.03447125
0,note_on,60,C4,0.6299212598425197,0.17241375000000403,46.206885
0,note_on,60,C4,0.6299212598425197,0.17241374999999692,46.379298750000004
0,note_on,60,C4,0.6299212598425197,0.17241375000000403,46.5517125
0,note_on,60,C4,0.6299212598425197,0.17241374999999692,46.724126250000005
0,note_on,60,C4,0.6299212598425197,0.17241375000000403,47.06895375
0,note_on,60,C4,0.6299212598425197,0.17241374999999692,47.586195000000004
0,note_on,60,C4,0.6299212598425197,0.17241375000000403,48.27585
0,note_on,60,C4,0.6299212598425197,0.17241375000000403,48.965505
0,note_on,60,C4,0.6299212598425197,0.17241374999999692,49.3103325
0,note_on,60,C4,0.6299212598425197,0.17241375000000403,49.48274625
0,note_on,60,C4,0.6299212598425197,0.17241375000000403,51.3792975
0,note_on,60,C4,0.6299212598425197,0.17241374999999692,51.551711250000004
0,note_on,60,C4,0.6299212598425197,0.17241375000000403,51.724125
0,note_on,60,C4,0.6299212598425197,0.17241374999999692,51.896538750000005
0,note_on,60,C4,0.6299212598425197,0.17241374999999692,52.0689525
0,note_on,60,C4,0.6299212598425197,0.17241375000000403,52.24136625
0,note_on,60,C4,0.6299212598425197,0.17241375000000403,52.58619375
0,note_on,60,C4,0.6299212598425197,0.17241374999999692,53.103435000000005
0,note_on,60,C4,0.6299212598425197,0.17241375000000403,53.79309
0,note_on,60,C4,0.6299212598425197,0.17241374999999692,54.482745
0,note_on,60,C4,0.6299212598425197,0.17241374999999692,55.1724
0,note_on,60,C4,0.6299212598425197,0.17241375000000403,56.8965375
0,note_on,60,C4,0.6299212598425197,0.17241374999999692,57.241365
0,note_on,60,C4,0.6299212598425197,0.17241374999999692,57.5861925
0,note_on,60,C4,0.6299212598425197,0.17241374999999692,57.931020000000004
0,note_on,60,C4,0.6299212598425197,0.17241374999999692,58.275847500000005
0,note_on,60,C4,0.6299212598425197,0.17241375000000403,58.620675
0,note_on,60,C4,0.6299212598425197,0.17241375000000403,58.9655025
0,note_on,60,C4,0.6299212598425197,0.17241374999999692,59.13791625
0,note_on,60,C4,0.6299212598425197,0.17241374999999692,59.482743750000004
0,note_on,60,C4,0.6299212598425197,0.17241374999999692,59.6551575
0,note_on,60,C4,0.6299212598425197,0.17241374999999692,59.999985
0,note_on,60,C4,0.6299212598425197,0.17241374999999692,60.3448125
0,note_on,60,C4,0.6299212598425197,0.17241374999999692,60.689640000000004
0,note_on,60,C4,0.6299212598425197,0.17241375000000403,61.0344675
0,note_on,60,C4,0.6299212598425197,0.17241375000000403,61.379295
0,note_on,60,C4,0.6299212598425197,0.17241375000000403,61.7241225
0,note_on,60,C4,0.6299212598425197,0.17241374999999692,61.896536250000004
0,note_on,60,C4,0.6299212598425197,0.17241374999999692,62.241363750000005
0,note_on,60,C4,0.6299212598425197,0.17241374999999692,62.4137775
0,note_on,60,C4,0.6299212598425197,0.17241374999999692,62.758605
0,note_on,60,C4,0.6299212598425197,0.17241374999999692,63.103432500000004
0,note_on,60,C4,0.6299212598425197,0.17241374999999692,63.448260000000005
0,note_on,60,C4,0.6299212598425197,0.17241375000000403,63.7930875
0,note_on,60,C4,0.6299212598425197,0.17241374999998982,64.137915
0,note_on,60,C4,0.6299212598425197,0.17241375000000403,64.4827425
0,note_on,60,C4,0.6299212598425197,0.17241375000000403,64.65515625
0,note_on,60,C4,0.6299212598425197,0.17241375000000403,64.99998375
0,note_on,60,C4,0.6299212598425197,0.17241375000000403,65.1723975
0,note_on,60,C4,0.6299212598425197,0.17241375000000403,65.517225
0,note_on,60,C4,0.6299212598425197,0.17241375000000403,65.8620525
0,note_on,60,C4,0.6299212598425197,0.17241375000000403,66.20688
0,note_on,60,C4,0.6299212598425197,0.17241374999998982,66.5517075
0,note_on,60,C4,0.6299212598425197,0.17241375000000403,66.896535
0,note_on,60,C4,0.6299212598425197,0.17241375000000403,67.06894875
0,note_on,60,C4,0.6299212598425197,0.17241374999998982,67.24136250000001
0,note_on,60,C4,0.6299212598425197,0.17241375000000403,67.41377625
0,note_on,60,C4,0.6299212598425197,0.17241375000000403,67.9310175
0,note_on,60,C4,0.6299212598425197,0.17241375000000403,68.275845
0,note_on,60,C4,0.6299212598425197,0.17241375000000403,68.6206725
0,note_on,60,C4,0.6299212598425197,0.17241374999998982,68.9655
0,note_on,60,C4,0.6299212598425197,0.17241375000000403,69.3103275
0,note_on,60,C4,0.6299212598425197,0.17241374999998982,69.65515500000001
0,note_on,60,C4,0.6299212598425197,0.17241375000000403,69.9999825
0,note_on,60,C4,0.6299212598425197,0.17241374999998982,70.17239625
0,note_on,60,C4,0.6299212598425197,0.17241375000000403,70.51722375
0,note_on,60,C4,0.6299212598425197,0.17241375000000403,70.6896375
0,note_on,60,C4,0.6299212598425197,0.17241375000000403,71.034465
0,note_on,60,C4,0.6299212598425197,0.17241374999998982,71.3792925
0,note_on,60,C4,0.6299212598425197,0.17241375000000403,71.72412
0,note_on,60,C4,0.6299212598425197,0.17241374999998982,72.06894750000001
0,note_on,60,C4,0.6299212598425197,0.17241375000000403,72.413775
0,note_on,60,C4,0.6299212598425197,0.17241375000000403,72.7586025
0,note_on,60,C4,0.6299212598425197,0.17241375000000403,72.93101625
0,note_on,60,C4,0.6299212598425197,0.17241374999998982,73.27584375
0,note_on,60,C4,0.6299212598425197,0.17241375000000403,73.4482575
0,note_on,60,C4,0.6299212598425197,0.17241375000000403,73.793085
0,note_on,60,C4,0.6299212598425197,0.17241375000000403,74.1379125
0,note_on,60,C4,0.6299212598425197,0.17241374999998982,74.48274
0,note_on,60,C4,0.6299212598425197,0.17241375000000403,74.8275675
0,note_on,60,C4,0.6299212598425197,0.17241374999998982,75.17239500000001
0,note_on,60,C4,0.6299212598425197,0.17241375000000403,75.5172225
0,note_on,60,C4,0.6299212598425197,0.17241374999998982,75.68963625
0,note_on,60,C4,0.6299212598425197,0.17241375000000403,76.03446375
0,note_on,60,C4,0.6299212598425197,0.17241375000000403,76.2068775
0,note_on,60,C4,0.6299212598425197,0.17241375000000403,76.551705
0,note_on,60,C4,0.6299212598425197,0.17241374999998982,76.8965325
0,note_on,60,C4,0.6299212598425197,0.17241375000000403,77.24136
0,note_on,60,C4,0.6299212598425197,0.17241374999998982,77.58618750000001
0,note_on,60,C4,0.6299212598425197,0.17241375000000403,77.931015
0,note_on,60,C4,0.6299212598425197,0.17241374999998982,78.10342875
0,note_on,60,C4,0.6299212598425197,0.17241375000000403,78.2758425
0,note_on,60,C4,0.6299212598425197,0.17241375000000403,78.44825625
0,note_on,60,C4,0.6299212598425197,0.17241375000000403,78.62067
0,note_on,60,C4,0.6299212598425197,0.17241375000000403,78.9654975
0,note_on,60,C4,0.6299212598425197,0.17241374999998982,79.310325
0,note_on,60,C4,0.6299212598425197,0.17241375000000403,79.6551525
0,note_on,60,C4,0.6299212598425197,0.17241374999998982,79.99998000000001
0,note_on,60,C4,0.6299212598425197,0.17241374999998982,80.51722125
0,note_on,60,C4,0.6299212598425197,0.17241374999998982,81.20687625000001
0,note_on,60,C4,0.6299212598425197,0.17241374999998982,82.41377250000001
0,note_on,60,C4,0.6299212598425197,0.17241375000000403,82.58618625
0,note_on,60,C4,0.6299212598425197,0.17241375000000403,82.7586
0,note_on,60,C4,0.6299212598425197,0.17241375000000403,83.27584125
0,note_on,60,C4,0.6299212598425197,0.17241375000000403,83.96549625
0,note_on,60,C4,0.6299212598425197,0.17241375000000403,85.1723925
0,note_on,60,C4,0.6299212598425197,0.17241375000000403,85.34480625
0,note_on,60,C4,0.6299212598425197,0.17241374999998982,85.51722000000001
0,note_on,60,C4,0.6299212598425197,0.17241374999998982,86.03446125
0,note_on,60,C4,0.6299212598425197,0.17241374999998982,86.72411625000001
0,note_on,60,C4,0.6299212598425197,0.17241374999998982,87.93101250000001
0,note_on,60,C4,0.6299212598425197,0.17241375000000403,88.10342625
0,note_on,60,C4,0.6299212598425197,0.17241375000000403,88.27584
0,note_on,60,C4,0.6299212598425197,0.17241375000000403,88.79308125
0,note_on,60,C4,0.6299212598425197,0.17241375000000403,89.48273625
0,note_on,60,C4,0.6299212598425197,0.17241375000000403,90.6896325
0,note_on,60,C4,0.6299212598425197,0.17241374999998982,90.86204625
0,note_on,60,C4,0.6299212598425197,0.17241375000000403,91.03446
0,note_on,60,C4,0.6299212598425197,0.17241375000000403,91.724115
0,note_on,60,C4,0.6299212598425197,0.17241375000000403,92.41377
0,note_on,60,C4,0.6299212598425197,0.17241375000000403,92.58618375
0,note_on,60,C4,0.6299212598425197,0.17241374999998982,92.75859750000001
0,note_on,60,C4,0.6299212598425197,0.17241375000000403,92.93101125
0,note_on,60,C4,0.6299212598425197,0.17241375000000403,93.103425
0,note_on,60,C4,0.6299212598425197,0.17241374999998982,93.44825250000001
0,note_on,60,C4,0.6299212598425197,0.17241375000000403,93.62066625
0,note_on,60,C4,0.6299212598425197,0.17241374999998982,93.96549375000001
0,note_on,60,C4,0.6299212598425197,0.17241374999998982,95.17239000000001
0,note_on,60,C4,0.6299212598425197,0.17241375000000403,95.34480375
0,note_on,60,C4,0.6299212598425197,0.17241375000000403,95.5172175
0,note_on,60,C4,0.6299212598425197,0.17241375000000403,95.68963125
0,note_on,60,C4,0.6299212598425197,0.17241374999998982,95.86204500000001
0,note_on,60,C4,0.6299212598425197,0.17241375000000403,96.2068725
0,note_on,60,C4,0.6299212598425197,0.17241375000000403,96.5517
0,note_on,60,C4,0.6299212598425197,0.17241375000000403,97.241355
0,note_on,60,C4,0.6299212598425197,0.17241375000000403,97.93101
0,note_on,60,C4,0.6299212598425197,0.17241375000000403,98.10342375
0,note_on,60,C4,0.6299212598425197,0.17241375000000403,98.9654925
0,note_on,60,C4,0.6299212598425197,0.17241375000000403,99.13790625
0,note_on,60,C4,0.6299212598425197,0.17241375000000403,99.31032
0,note_on,60,C4,0.6299212598425197,0.17241374999998982,99.48273375000001
0,note_on,60,C4,0.6299212598425197,0.17241375000000403,99.6551475
0,note_on,60,C4,0.6299212598425197,0.17241375000000403,99.82756125
0,note_on,60,C4,0.6299212598425197,0.17241374999998982,99.999975
0,note_on,60,C4,0.6299212598425197,0.17241374999998982,100.34623928125
0,note_on,60,C4,0.6299212598425197,0.17241375000000403,100.51865303125
0,note_on,60,C4,0.6299212598425197,0.17241374999998982,100.86348053125
0,note_on,60,C4,0.6299212598425197,0.17241375000000403,101.03589428125
0,note_on,60,C4,0.6299212598425197,0.17241375000000403,101.20830803125
0,note_on,60,C4,0.6299212598425197,0.17241375000000403,101.38072178125
0,note_on,60,C4,0.6299212598425197,0.17241374999998982,101.55313553125
0,note_on,60,C4,0.6299212598425197,0.17241375000000403,101.72554928125
0,note_on,60,C4,0.6299212598425197,0.17241375000000403,101.89796303125
0,note_on,60,C4,0.6299212598425197,0.17241375000000403,102.24279053125
0,note_on,60,C4,0.6299212598425197,0.17241374999998982,102.76003178125
0,note_on,60,C4,0.6299212598425197,0.17241374999998982,102.76003178125
0,note_on,60,C4,0.6299212598425197,0.17241374999998982,103.44968678125001
0,note_on,60,C4,0.6299212598425197,0.17241375000000403,104.13934178125
0,note_on,60,C4,0.6299212598425197,0.17241375000000403,104.48416928125
0,note_on,60,C4,0.6299212598425197,0.17241374999998982,104.65658303125001
0,note_on,60,C4,0.6299212598425197,0.17241375000000403,106.55313428125
0,note_on,60,C4,0.6299212598425197,0.17241375000000403,106.72554803125
0,note_on,60,C4,0.6299212598425197,0.17241375000000403,106.89796178125
0,note_on,60,C4,0.6299212598425197,0.17241374999998982,107.07037553125001
0,note_on,60,C4,0.6299212598425197,0.17241375000000403,107.24278928125
0,note_on,60,C4,0.6299212598425197,0.17241375000000403,107.41520303125
0,note_on,60,C4,0.6299212598425197,0.17241375000000403,107.76003053125
0,note_on,60,C4,0.6299212598425197,0.17241374999998982,108.27727178125001
0,note_on,60,C4,0.6299212598425197,0.17241375000000403,108.96692678125
0,note_on,60,C4,0.6299212598425197,0.17241375000000403,109.65658178125
0,note_on,60,C4,0.6299212598425197,0.17241374999998982,110.00140928125
0,note_on,60,C4,0.6299212598425197,0.17241375000000403,110.17382303125
0,note_on,60,C4,0.6299212598425197,0.17241375000000403,111.72411
0,note_on,60,C4,0.6299212598425197,0.17241375000000403,112.0689375
0,note_on,60,C4,0.6299212598425197,0.17241375000000403,112.413765
0,note_on,60,C4,0.6299212598425197,0.17241375000000403,112.7585925
0,note_on,60,C4,0.6299212598425197,0.17241374999998982,112.93100625000001
0,note_on,60,C4,0.6299212598425197,0.17241375000000403,113.10342
0,note_on,60,C4,0.6299212598425197,0.17241374999998982,113.44824750000001
0,note_on,60,C4,0.6299212598425197,0.17241375000000403,113.793075
0,note_on,60,C4,0.6299212598425197,0.17241374999998982,114.13790250000001
0,note_on,60,C4,0.6299212598425197,0.17241375000000403,114.48273
0,note_on,60,C4,0.6299212598425197,0.17241375000000403,114.8275575
0,note_on,60,C4,0.6299212598425197,0.17241375000000403,115.172385
0,note_on,60,C4,0.6299212598425197,0.17241375000000403,115.5172125
0,note_on,60,C4,0.6299212598425197,0.17241375000000403,115.68962625
0,note_on,60,C4,0.6299212598425197,0.17241374999998982,115.86204000000001
0,note_on,60,C4,0.6299212598425197,0.17241375000000403,116.2068675
0,note_on,60,C4,0.6299212598425197,0.17241374999998982,116.55169500000001
0,note_on,60,C4,0.6299212598425197,0.17241375000000403,116.8965225
0,note_on,60,C4,0.6299212598425197,0.17241375000000403,117.24135
0,note_on,60,C4,0.6299212598425197,0.17241375000000403,117.5861775
0,note_on,60,C4,0.6299212598425197,0.17241375000000403,117.931005
0,note_on,60,C4,0.6299212598425197,0.17241374999998982,118.2758325
0,note_on,60,C4,0.6299212598425197,0.17241375000000403,118.44824625
0,note_on,60,C4,0.6299212598425197,0.17241374999998982,118.96548750000001
0,note_on,60,C4,0.6299212598425197,0.17241375000000403,119.13790125
0,note_on,60,C4,0.6299212598425197,0.17241375000000403,119.6551425
0,note_on,60,C4,0.6299212598425197,0.17241375000000403,119.82755625
0,note_on,60,C4,0.6299212598425197,0.17241375000000403,120.3447975
0,note_on,60,C4,0.6299212598425197,0.17241375000000403,120.51721125
0,note_on,60,C4,0.6299212598425197,0.17241375000000403,121.0344525
0,note_on,60,C4,0.6299212598425197,0.17241375000000403,121.20686625
0,note_on,60,C4,0.6299212598425197,0.17241374999998982,121.37928000000001
0,note_on,60,C4,0.6299212598425197,0.17241375000000403,121.55169375
0,note_on,60,C4,0.6299212598425197,0.17241375000000403,121.7241075
0,note_on,60,C4,0.6299212598425197,0.17241374999998982,121.89652125
0,note_on,60,C4,0.6299212598425197,0.17241375000000403,122.068935
0,note_on,60,C4,0.6299212598425197,0.17241375000000403,122.24134875
0,note_on,60,C4,0.6299212598425197,0.17241375000000403,122.4137625
0,note_on,60,C4,0.6299212598425197,0.17241374999998982,122.58617625000001
0,note_on,60,C4,0.6299212598425197,0.17241375000000403,122.75859
0,note_on,60,C4,0.6299212598425197,0.17241375000000403,123.1034175
0,note_on,60,C4,0.6299212598425197,0.17241375000000403,123.448245
0,note_on,60,C4,0.6299212598425197,0.17241374999998982,123.79307250000001
0,note_on,60,C4,0.6299212598425197,0.17241375000000403,124.1379
0,note_on,60,C4,0.6299212598425197,0.17241374999998982,124.48272750000001
0,note_on,60,C4,0.6299212598425197,0.17241375000000403,124.827555
0,note_on,60,C4,0.6299212598425197,0.17241375000000403,125.1723825
0,note_on,60,C4,0.6299212598425197,0.17241375000000403,125.34479625
0,note_on,60,C4,0.6299212598425197,0.17241374999998982,125.68962375000001
0,note_on,60,C4,0.6299212598425197,0.17241375000000403,125.8620375
0,note_on,60,C4,0.6299212598425197,0.17241374999998982,126.20686500000001
0,note_on,60,C4,0.6299212598425197,0.17241375000000403,126.5516925
0,note_on,60,C4,0.6299212598425197,0.17241374999998982,126.89652000000001
0,note_on,60,C4,0.6299212598425197,0.17241375000000403,127.2413475
0,note_on,60,C4,0.6299212598425197,0.17241375000000403,127.586175
0,note_on,60,C4,0.6299212598425197,0.17241375000000403,127.9310025
0,note_on,60,C4,0.6299212598425197,0.17241375000000403,128.10341625
0,note_on,60,C4,0.6299212598425197,0.1724137499999756,128.44824375000002
0,note_on,60,C4,0.6299212598425197,0.17241375000000403,128.6206575
0,note_on,60,C4,0.6299212598425197,0.17241375000000403,128.965485
0,note_on,60,C4,0.6299212598425197,0.17241375000000403,129.3103125
0,note_on,60,C4,0.6299212598425197,0.1724137499999756,129.65514000000002
0,note_on,60,C4,0.6299212598425197,0.17241375000000403,129.9999675
0,note_on,60,C4,0.6299212598425197,0.17241375000000403,130.344795
0,note_on,60,C4,0.6299212598425197,0.17241375000000403,130.6896225
0,note_on,60,C4,0.6299212598425197,0.1724137499999756,130.86203625000002
0,note_on,60,C4,0.6299212598425197,0.17241375000000403,131.20686375
0,note_on,60,C4,0.6299212598425197,0.17241375000000403,131.3792775
0,note_on,60,C4,0.6299212598425197,0.17241375000000403,131.724105
0,note_on,60,C4,0.6299212598425197,0.1724137499999756,132.06893250000002
0,note_on,60,C4,0.6299212598425197,0.17241375000000403,132.41376
0,note_on,60,C4,0.6299212598425197,0.17241375000000403,132.7585875
0,note_on,60,C4,0.6299212598425197,0.17241375000000403,133.103415
0,note_on,60,C4,0.6299212598425197,0.1724137499999756,133.27582875000002
0,note_on,60,C4,0.6299212598425197,0.17241375000000403,133.4482425
0,note_on,60,C4,0.6299212598425197,0.17241375000000403,133.62065625
0,note_on,60,C4,0.6299212598425197,0.17241375000000403,134.1378975
0,note_on,60,C4,0.6299212598425197,0.1724137499999756,134.48272500000002
0,note_on,60,C4,0.6299212598425197,0.17241375000000403,134.8275525
0,note_on,60,C4,0.6299212598425197,0.17241375000000403,135.17238
0,note_on,60,C4,0.6299212598425197,0.17241375000000403,135.5172075
0,note_on,60,C4,0.6299212598425197,0.17241375000000403,135.862035
0,note_on,60,C4,0.6299212598425197,0.17241375000000403,136.2068625
0,note_on,60,C4,0.6299212598425197,0.17241375000000403,136.37927625
0,note_on,60,C4,0.6299212598425197,0.17241375000000403,136.72410375
0,note_on,60,C4,0.6299212598425197,0.1724137499999756,136.89651750000002
0,note_on,60,C4,0.6299212598425197,0.17241375000000403,137.241345
0,note_on,60,C4,0.6299212598425197,0.17241375000000403,137.5861725
0,note_on,60,C4,0.6299212598425197,0.17241375000000403,137.931
0,note_on,60,C4,0.6299212598425197,0.17241375000000403,138.2758275
0,note_on,60,C4,0.6299212598425197,0.17241375000000403,138.620655
0,note_on,60,C4,0.6299212598425197,0.17241375000000403,138.9654825
0,note_on,60,C4,0.6299212598425197,0.17241375000000403,139.13789625
0,note_on,60,C4,0.6299212598425197,0.17241375000000403,139.48272375
0,note_on,60,C4,0.6299212598425197,0.17241375000000403,139.6551375
0,note_on,60,C4,0.6299212598425197,0.17241375000000403,139.999965
0,note_on,60,C4,0.6299212598425197,0.17241375000000403,140.3447925
0,note_on,60,C4,0.6299212598425197,0.17241375000000403,140.68962
0,note_on,60,C4,0.6299212598425197,0.17241375000000403,141.0344475
0,note_on,60,C4,0.6299212598425197,0.17241375000000403,141.379275
0,note_on,60,C4,0.6299212598425197,0.1724137499999756,141.72410250000001
0,note_on,60,C4,0.6299212598425197,0.17241375000000403,141.89651625
0,note_on,60,C4,0.6299212598425197,0.17241375000000403,142.24134375
0,note_on,60,C4,0.6299212598425197,0.17241375000000403,142.4137575
0,note_on,60,C4,0.6299212598425197,0.17241375000000403,142.758585
0,note_on,60,C4,0.6299212598425197,0.17241375000000403,143.1034125
0,note_on,60,C4,0.6299212598425197,0.17241375000000403,143.44824
0,note_on,60,C4,0.6299212598425197,0.17241375000000403,143.7930675
0,note_on,60,C4,0.6299212598425197,0.1724137499999756,144.13789500000001
0,note_on,60,C4,0.6299212598425197,0.17241375000000403,144.31030875
0,note_on,60,C4,0.6299212598425197,0.17241375000000403,144.4827225
0,note_on,60,C4,0.6299212598425197,0.17241375000000403,144.65513625
0,note_on,60,C4,0.6299212598425197,0.17241375000000403,144.82755
0,note_on,60,C4,0.6299212598425197,0.17241375000000403,145.1723775
0,note_on,60,C4,0.6299212598425197,0.17241375000000403,145.517205
0,note_on,60,C4,0.6299212598425197,0.17241375000000403,145.8620325