Track,Event Type,Midi Note,Note Name,Velocity,Duration (seconds),Time (seconds)
0,note_on,60,C4,0.6299212598425197,0.09375,1.875
0,note_on,60,C4,0.6299212598425197,0.09375,2.0625
0,note_on,60,C4,0.6299212598425197,0.09375,2.4375
0,note_on,60,C4,0.6299212598425197,0.09375,2.625
0,note_on,60,C4,0.6299212598425197,0.09375,2.8125
0,note_on,60,C4,0.6299212598425197,0.09375,3.1875
0,note_on,60,C4,0.6299212598425197,0.09375,3.5625
0,note_on,60,C4,0.6299212598425197,0.09375,3.75
0,note_on,60,C4,0.6299212598425197,0.09375,4.125
0,note_on,60,C4,0.6299212598425197,0.09375,4.5
0,note_on,60,C4,0.6299212598425197,0.09375,5.25
0,note_on,60,C4,0.6299212598425197,0.09375,5.4375
0,note_on,60,C4,0.6299212598425197,0.09375,5.8125
0,note_on,60,C4,0.6299212598425197,0.09375,7.125
0,note_on,60,C4,0.6299212598425197,0.09375,7.5
0,note_on,60,C4,0.6299212598425197,0.09375,7.6875
0,note_on,60,C4,0.6299212598425197,0.09375,7.875
0,note_on,60,C4,0.6299212598425197,0.09375,8.0625
0,note_on,60,C4,0.6299212598425197,0.09375,8.25
0,note_on,60,C4,0.6299212598425197,0.09375,8.8125
0,note_on,60,C4,0.6299212598425197,0.09375,9.1875
0,note_on,60,C4,0.6299212598425197,0.09375,9.375
0,note_on,60,C4,0.6299212598425197,0.09375,9.5625
0,note_on,60,C4,0.6299212598425197,0.09375,9.75
0,note_on,60,C4,0.6299212598425197,0.09375,9.9375
0,note_on,60,C4,0.6299212598425197,0.09375,10.125
0,note_on,60,C4,0.6299212598425197,0.09375,10.5
0,note_on,60,C4,0.6299212598425197,0.09375,10.6875
0,note_on,60,C4,0.6299212598425197,0.09375,10.875
0,note_on,60,C4,0.6299212598425197,0.09375,11.0625
0,note_on,60,C4,0.6299212598425197,0.09375,11.25
0,note_on,60,C4,0.6299212598425197,0.09375,11.4375
0,note_on,60,C4,0.6299212598425197,0.09375,11.625
0,note_on,60,C4,0.6299212598425197,0.09375,11.8125
0,note_on,60,C4,0.6299212598425197,0.09375,12.1875
0,note_on,60,C4,0.6299212598425197,0.09375,12.375
0,note_on,60,C4,0.6299212598425197,0.09375,12.5625
0,note_on,60,C4,0.6299212598425197,0.09375,12.75
0,note_on,60,C4,0.6299212598425197,0.09375,12.9375
0,note_on,60,C4,0.6299212598425197,0.09375,13.125
0,note_on,60,C4,0.6299212598425197,0.09375,13.5
0,note_on,60,C4,0.6299212598425197,0.09375,13.6875
0,note_on,60,C4,0.6299212598425197,0.09375,13.875
0,note_on,60,C4,0.6299212598425197,0.09375,14.0625
0,note_on,60,C4,0.6299212598425197,0.09375,14.25
0,note_on,60,C4,0.6299212598425197,0.09375,14.4375
0,note_on,60,C4,0.6299212598425197,0.09375,14.625
0,note_on,60,C4,0.6299212598425197,0.09375,14.8125
0,note_on,60,C4,0.6299212598425197,0.09375,15.1875
0,note_on,60,C4,0.6299212598425197,0.09375,15.375
0,note_on,60,C4,0.6299212598425197,0.09375,15.5625
0,note_on,60,C4,0.6299212598425197,0.09375,15.9375
0,note_on,60,C4,0.6299212598425197,0.09375,16.3125
0,note_on,60,C4,0.6299212598425197,0.09375,18
0,note_on,60,C4,0.6299212598425197,0.09375,18.1875
0,note_on,60,C4,0.6299212598425197,0.09375,18.375
0,note_on,60,C4,0.6299212598425197,0.09375,18.5625
0,note_on,60,C4,0.6299212598425197,0.09375,18.9375
0,note_on,60,C4,0.6299212598425197,0.09375,19.125
0,note_on,60,C4,0.6299212598425197,0.09375,19.3125
0,note_on,60,C4,0.6299212598425197,0.09375,19.5
0,note_on,60,C4,0.6299212598425197,0.09375,20.4375
0,note_on,60,C4,0.6299212598425197,0.09375,20.625
0,note_on,60,C4,0.6299212598425197,0.09375,20.8125
0,note_on,60,C4,0.6299212598425197,0.09375,21.1875
0,note_on,60,C4,0.6299212598425197,0.09375,21.5625
0,note_on,60,C4,0.6299212598425197,0.09375,21.75
0,note_on,60,C4,0.6299212598425197,0.09375,21.9375
0,note_on,60,C4,0.6299212598425197,0.09375,22.125
0,note_on,60,C4,0.6299212598425197,0.09375,22.3125
0,note_on,60,C4,0.6299212598425197,0.09375,22.5
0,note_on,60,C4,0.6299212598425197,0.09375,22.875
0,note_on,60,C4,0.6299212598425197,0.09375,23.0625
0,note_on,60,C4,0.6299212598425197,0.09375,23.4375
0,note_on,60,C4,0.6299212598425197,0.09375,23.8125
0,note_on,60,C4,0.6299212598425197,0.09375,24.171875
0,note_on,60,C4,0.6299212598425197,0.09375,24.375
0,note_on,60,C4,0.6299212598425197,0.09375,24.5625
0,note_on,60,C4,0.6299212598425197,0.09375,24.9375
0,note_on,60,C4,0.6299212598425197,0.09375,25.125
0,note_on,60,C4,0.6299212598425197,0.09375,25.5
0,note_on,60,C4,0.6299212598425197,0.09375,25.6875
0,note_on,60,C4,0.6299212598425197,0.09375,25.875
0,note_on,60,C4,0.6299212598425197,0.09375,26.0625
0,note_on,60,C4,0.6299212598425197,0.09375,26.4375
0,note_on,60,C4,0.6299212598425197,0.09375,26.625
0,note_on,60,C4,0.6299212598425197,0.09375,26.8125
0,note_on,60,C4,0.6299212598425197,0.09375,27.1875
0,note_on,60,C4,0.6299212598425197,0.09375,27.375
0,note_on,60,C4,0.6299212598425197,0.09375,27.5625
0,note_on,60,C4,0.6299212598425197,0.09375,27.9375
0,note_on,60,C4,0.6299212598425197,0.09375,28.125
0,note_on,60,C4,0.6299212598425197,0.09375,28.3125
0,note_on,60,C4,0.6299212598425197,0.09375,28.5
0,note_on,60,C4,0.6299212598425197,0.09375,28.875
0,note_on,60,C4,0.6299212598425197,0.09375,29.0625
0,note_on,60,C4,0.6299212598425197,0.09375,29.25
0,note_on,60,C4,0.6299212598425197,0.09375,29.625
0,note_on,60,C4,0.6299212598425197,0.09375,29.8125
0,note_on,60,C4,0.6299212598425197,0.09375,30
0,note_on,60,C4,0.6299212598425197,0.09375,30.1875
0,note_on,60,C4,0.6299212598425197,0.09375,30.375
0,note_on,60,C4,0.6299212598425197,0.09375,30.5625
0,note_on,60,C4,0.6299212598425197,0.09375,30.75
0,note_on,60,C4,0.6299212598425197,0.09375,30.9375
0,note_on,60,C4,0.6299212598425197,0.09375,31.125
0,note_on,60,C4,0.6299212598425197,0.09375,31.3125
0,note_on,60,C4,0.6299212598425197,0.09375,31.875
0,note_on,60,C4,0.6299212598425197,0.09375,32.0625
0,note_on,60,C4,0.6299212598425197,0.09375,32.25
0,note_on,60,C4,0.6299212598425197,0.09375,32.625
0,note_on,60,C4,0.6299212598425197,0.09375,33
0,note_on,60,C4,0.6299212598425197,0.09375,33.375
0,note_on,60,C4,0.6299212598425197,0.09375,33.5625
0,note_on,60,C4,0.6299212598425197,0.09375,33.9375
0,note_on,60,C4,0.6299212598425197,0.09375,34.125
0,note_on,60,C4,0.6299212598425197,0.09375,34.6875
0,note_on,60,C4,0.6299212598425197,0.09375,34.875
0,note_on,60,C4,0.6299212598425197,0.09375,35.0625
0,note_on,60,C4,0.6299212598425197,0.09375,35.25
0,note_on,60,C4,0.6299212598425197,0.09375,35.4375
0,note_on,60,C4,0.6299212598425197,0.09375,35.625
0,note_on,60,C4,0.6299212598425197,0.09375,36
0,note_on,60,C4,0.6299212598425197,0.09375,36.375
0,note_on,60,C4,0.6299212598425197,0.09375,36.5625
0,note_on,60,C4,0.6299212598425197,0.09375,36.9375
0,note_on,60,C4,0.6299212598425197,0.09375,37.125
0,note_on,60,C4,0.6299212598425197,0.09375,37.6875
0,note_on,60,C4,0.6299212598425197,0.09375,37.875
0,note_on,60,C4,0.6299212598425197,0.09375,38.0625
0,note_on,60,C4,0.6299212598425197,0.09375,38.25
0,note_on,60,C4,0.6299212598425197,0.09375,38.625
0,note_on,60,C4,0.6299212598425197,0.09375,39.1875
0,note_on,60,C4,0.6299212598425197,0.09375,39.375
0,note_on,60,C4,0.6299212598425197,0.09375,39.5625
0,note_on,60,C4,0.6299212598425197,0.09375,39.75
0,note_on,60,C4,0.6299212598425197,0.09375,40.125
0,note_on,60,C4,0.6299212598425197,0.09375,40.5
0,note_on,60,C4,0.6299212598425197,0.09375,40.6875
0,note_on,60,C4,0.6299212598425197,0.09375,40.875
0,note_on,60,C4,0.6299212598425197,0.09375,41.0625
0,note_on,60,C4,0.6299212598425197,0.09375,41.4375
0,note_on,60,C4,0.6299212598425197,0.09375,41.625
0,note_on,60,C4,0.6299212598425197,0.09375,41.8125
0,note_on,60,C4,0.6299212598425197,0.09375,42.1875
0,note_on,60,C4,0.6299212598425197,0.09375,42.375
0,note_on,60,C4,0.6299212598425197,0.09375,43.5
0,note_on,60,C4,0.6299212598425197,0.09375,43.6875
0,note_on,60,C4,0.6299212598425197,0.09375,43.875
0,note_on,60,C4,0.6299212598425197,0.09375,44.0625
0,note_on,60,C4,0.6299212598425197,0.09375,44.25
0,note_on,60,C4,0.6299212598425197,0.09375,44.625
0,note_on,60,C4,0.6299212598425197,0.09375,44.8125
0,note_on,60,C4,0.6299212598425197,0.09375,45.1875
0,note_on,60,C4,0.6299212598425197,0.09375,45.5625
0,note_on,60,C4,0.6299212598425197,0.09375,45.9375
0,note_on,60,C4,0.6299212598425197,0.09375,46.5
0,note_on,60,C4,0.6299212598425197,0.09375,46.6875
0,note_on,60,C4,0.6299212598425197,0.09375,46.875
0,note_on,60,C4,0.6299212598425197,0.09375,47.0625
0,note_on,60,C4,0.6299212598425197,0.09375,47.4375
0,note_on,60,C4,0.6299212598425197,0.09375,47.8125
0,note_on,60,C4,0.6299212598425197,0.09375,48.1875
0,note_on,60,C4,0.6299212598425197,0.09375,48.5625
0,note_on,60,C4,0.6299212598425197,0.09375,48.9375
0,note_on,60,C4,0.6299212598425197,0.09375,49.125
0,note_on,60,C4,0.6299212598425197,0.09375,49.3125
0,note_on,60,C4,0.6299212598425197,0.09375,49.875
0,note_on,60,C4,0.6299212598425197,0.09375,50.25
0,note_on,60,C4,0.6299212598425197,0.09375,50.625
0,note_on,60,C4,0.6299212598425197,0.09375,51
0,note_on,60,C4,0.6299212598425197,0.09375,51.375
0,note_on,60,C4,0.6299212598425197,0.09375,51.5625
0,note_on,60,C4,0.6299212598425197,0.09375,52.125
0,note_on,60,C4,0.6299212598425197,0.09375,52.3125
0,note_on,60,C4,0.6299212598425197,0.09375,52.5
0,note_on,60,C4,0.6299212598425197,0.09375,52.6875
0,note_on,60,C4,0.6299212598425197,0.09375,52.875
0,note_on,60,C4,0.6299212598425197,0.09375,53.0625
0,note_on,60,C4,0.6299212598425197,0.09375,53.25
0,note_on,60,C4,0.6299212598425197,0.09375,53.625
0,note_on,60,C4,0.6299212598425197,0.09375,54
0,note_on,60,C4,0.6299212598425197,0.09375,54.375
0,note_on,60,C4,0.6299212598425197,0.09375,54.5625
0,note_on,60,C4,0.6299212598425197,0.09375,54.9375
0,note_on,60,C4,0.6299212598425197,0.09375,55.3125
0,note_on,60,C4,0.6299212598425197,0.09375,55.6875
0,note_on,60,C4,0.6299212598425197,0.09375,55.875
0,note_on,60,C4,0.6299212598425197,0.09375,56.0625
0,note_on,60,C4,0.6299212598425197,0.09375,56.25
0,note_on,60,C4,0.6299212598425197,0.09375,56.625
0,note_on,60,C4,0.6299212598425197,0.09375,56.8125
0,note_on,60,C4,0.6299212598425197,0.09375,57
0,note_on,60,C4,0.6299212598425197,0.09375,57.375
0,note_on,60,C4,0.6299212598425197,0.09375,57.5625
0,note_on,60,C4,0.6299212598425197,0.09375,57.9375
0,note_on,60,C4,0.6299212598425197,0.09375,58.3125
0,note_on,60,C4,0.6299212598425197,0.09375,58.5
0,note_on,60,C4,0.6299212598425197,0.09375,58.6875
0,note_on,60,C4,0.6299212598425197,0.09375,58.875
0,note_on,60,C4,0.6299212598425197,0.09375,59.0625
0,note_on,60,C4,0.6299212598425197,0.09375,59.25
0,note_on,60,C4,0.6299212598425197,0.09375,59.4375
0,note_on,60,C4,0.6299212598425197,0.09375,59.625
0,note_on,60,C4,0.6299212598425197,0.09375,59.8125
0,note_on,60,C4,0.6299212598425197,0.09375,60
0,note_on,60,C4,0.6299212598425197,0.09375,60.1875
0,note_on,60,C4,0.6299212598425197,0.09375,60.375
0,note_on,60,C4,0.6299212598425197,0.09375,60.5625
0,note_on,60,C4,0.6299212598425197,0.09375,60.75
0,note_on,60,C4,0.6299212598425197,0.09375,60.9375
0,note_on,60,C4,0.6299212598425197,0.09375,61.125
0,note_on,60,C4,0.6299212598425197,0.09375,61.3125
0,note_on,60,C4,0.6299212598425197,0.09375,61.875
0,note_on,60,C4,0.6299212598425197,0.09375,62.25
0,note_on,60,C4,0.6299212598425197,0.09375,62.4375
0,note_on,60,C4,0.6299212598425197,0.09375,62.625
0,note_on,60,C4,0.6299212598425197,0.09375,62.8125
0,note_on,60,C4,0.6299212598425197,0.09375,63
0,note_on,60,C4,0.6299212598425197,0.09375,63.1875
0,note_on,60,C4,0.6299212598425197,0.09375,63.375
0,note_on,60,C4,0.6299212598425197,0.09375,63.5625
0,note_on,60,C4,0.6299212598425197,0.09375,63.75
0,note_on,60,C4,0.6299212598425197,0.09375,64.125
0,note_on,60,C4,0.6299212598425197,0.09375,65.25
0,note_on,60,C4,0.6299212598425197,0.09375,65.4375
0,note_on,60,C4,0.6299212598425197,0.09375,65.625
0,note_on,60,C4,0.6299212598425197,0.09375,65.8125
0,note_on,60,C4,0.6299212598425197,0.09375,66
0,note_on,60,C4,0.6299212598425197,0.09375,66.1875
0,note_on,60,C4,0.6299212598425197,0.09375,66.375
0,note_on,60,C4,0.6299212598425197,0.09375,66.5625
0,note_on,60,C4,0.6299212598425197,0.09375,66.75
0,note_on,60,C4,0.6299212598425197,0.09375,67.125
0,note_on,60,C4,0.6299212598425197,0.09375,67.875
0,note_on,60,C4,0.6299212598425197,0.09375,68.0625
0,note_on,60,C4,0.6299212598425197,0.09375,68.25
0,note_on,60,C4,0.6299212598425197,0.09375,68.4375
0,note_on,60,C4,0.6299212598425197,0.09375,68.625
0,note_on,60,C4,0.6299212598425197,0.09375,68.8125
0,note_on,60,C4,0.6299212598425197,0.09375,69
0,note_on,60,C4,0.6299212598425197,0.09375,69.375
0,note_on,60,C4,0.6299212598425197,0.09375,69.5625
0,note_on,60,C4,0.6299212598425197,0.09375,70.125
0,note_on,60,C4,0.6299212598425197,0.09375,70.5
0,note_on,60,C4,0.6299212598425197,0.09375,70.875
0,note_on,60,C4,0.6299212598425197,0.09375,71.0625
0,note_on,60,C4,0.6299212598425197,0.09375,71.4375
0,note_on,60,C4,0.6299212598425197,0.09375,71.8125
0,note_on,60,C4,0.6299212598425197,0.09375,72.1875
0,note_on,60,C4,0.6299212598425197,0.09375,72.375
0,note_on,60,C4,0.6299212598425197,0.09375,72.75
0,note_on,60,C4,0.6299212598425197,0.09375,73.125
0,note_on,60,C4,0.6299212598425197,0.09375,73.5
0,note_on,60,C4,0.6299212598425197,0.09375,74.0625
0,note_on,60,C4,0.6299212598425197,0.09375,74.4375
0,note_on,60,C4,0.6299212598425197,0.09375,74.625
0,note_on,60,C4,0.6299212598425197,0.09375,74.8125
0,note_on,60,C4,0.6299212598425197,0.09375,75.375
0,note_on,60,C4,0.6299212598425197,0.09375,75.5625
0,note_on,60,C4,0.6299212598425197,0.09375,75.75
0,note_on,60,C4,0.6299212598425197,0.09375,75.9375
0,note_on,60,C4,0.6299212598425197,0.09375,76.125
0,note_on,60,C4,0.6299212598425197,0.09375,76.5
0,note_on,60,C4,0.6299212598425197,0.09375,76.875
0,note_on,60,C4,0.6299212598425197,0.09375,77.0625
0,note_on,60,C4,0.6299212598425197,0.09375,77.4375
0,note_on,60,C4,0.6299212598425197,0.09375,77.8125
0,note_on,60,C4,0.6299212598425197,0.09375,78.1875
0,note_on,60,C4,0.6299212598425197,0.09375,78.5625
0,note_on,60,C4,0.6299212598425197,0.09375,78.9375
0,note_on,60,C4,0.6299212598425197,0.09375,79.125
0,note_on,60,C4,0.6299212598425197,0.09375,79.875
0,note_on,60,C4,0.6299212598425197,0.09375,80.0625
0,note_on,60,C4,0.6299212598425197,0.09375,80.25
0,note_on,60,C4,0.6299212598425197,0.09375,80.4375
0,note_on,60,C4,0.6299212598425197,0.09375,80.8125
0,note_on,60,C4,0.6299212598425197,0.09375,81
0,note_on,60,C4,0.6299212598425197,0.09375,81.375
0,note_on,60,C4,0.6299212598425197,0.09375,81.5625
0,note_on,60,C4,0.6299212598425197,0.09375,82.5
0,note_on,60,C4,0.6299212598425197,0.09375,82.875
0,note_on,60,C4,0.6299212598425197,0.09375,83.0625
0,note_on,60,C4,0.6299212598425197,0.09375,83.625
0,note_on,60,C4,0.6299212598425197,0.09375,84
0,note_on,60,C4,0.6299212598425197,0.09375,84.75
0,note_on,60,C4,0.6299212598425197,0.09375,84.9375
0,note_on,60,C4,0.6299212598425197,0.09375,85.3125
0,note_on,60,C4,0.6299212598425197,0.09375,85.5
0,note_on,60,C4,0.6299212598425197,0.09375,85.6875
0,note_on,60,C4,0.6299212598425197,0.09375,85.875
0,note_on,60,C4,0.6299212598425197,0.09375,86.0625
0,note_on,60,C4,0.6299212598425197,0.09375,86.25
0,note_on,60,C4,0.6299212598425197,0.09375,86.8125
0,note_on,60,C4,0.6299212598425197,0.09375,87.1875
0,note_on,60,C4,0.6299212598425197,0.09375,87.375
0,note_on,60,C4,0.6299212598425197,0.09375,87.5625
0,note_on,60,C4,0.6299212598425197,0.09375,87.75
0,note_on,60,C4,0.6299212598425197,0.09375,87.9375
0,note_on,60,C4,0.6299212598425197,0.09375,88.125
0,note_on,60,C4,0.6299212598425197,0.09375,88.5
0,note_on,60,C4,0.6299212598425197,0.09375,88.6875
0,note_on,60,C4,0.6299212598425197,0.09375,88.875
0,note_on,60,C4,0.6299212598425197,0.09375,89.0625
0,note_on,60,C4,0.6299212598425197,0.09375,89.25
0,note_on,60,C4,0.6299212598425197,0.09375,89.4375
0,note_on,60,C4,0.6299212598425197,0.09375,89.625
0,note_on,60,C4,0.6299212598425197,0.09375,89.8125
0,note_on,60,C4,0.6299212598425197,0.09375,90.1875
0,note_on,60,C4,0.6299212598425197,0.09375,90.375
0,note_on,60,C4,0.6299212598425197,0.09375,90.5625
0,note_on,60,C4,0.6299212598425197,0.09375,90.75
0,note_on,60,C4,0.6299212598425197,0.09375,90.9375
0,note_on,60,C4,0.6299212598425197,0.09375,91.125
0,note_on,60,C4,0.6299212598425197,0.09375,91.5
0,note_on,60,C4,0.6299212598425197,0.09375,91.6875
0,note_on,60,C4,0.6299212598425197,0.09375,91.875
0,note_on,60,C4,0.6299212598425197,0.09375,92.0625
0,note_on,60,C4,0.6299212598425197,0.09375,92.25
0,note_on,60,C4,0.6299212598425197,0.09375,92.4375
0,note_on,60,C4,0.6299212598425197,0.09375,92.625
0,note_on,60,C4,0.6299212598425197,0.09375,92.8125
0,note_on,60,C4,0.6299212598425197,0.09375,93.1875
0,note_on,60,C4,0.6299212598425197,0.09375,93.375
0,note_on,60,C4,0.6299212598425197,0.09375,93.5625
0,note_on,60,C4,0.6299212598425197,0.09375,93.9375
0,note_on,60,C4,0.6299212598425197,0.09375,94.3125
0,note_on,60,C4,0.6299212598425197,0.09375,96
0,note_on,60,C4,0.6299212598425197,0.09375,96.1875
0,note_on,60,C4,0.6299212598425197,0.09375,96.375
0,note_on,60,C4,0.6299212598425197,0.09375,96.5625