Track,Event Type,Midi Note,Note Name,Velocity,Duration (seconds),Time (seconds)
0,note_on,60,C4,0.7874015748031497,0.13636349999999986,2.181816
0,note_on,60,C4,0.7874015748031497,0.1363635000000003,2.72727
0,note_on,60,C4,0.7874015748031497,0.13636349999999986,3.272724
0,note_on,60,C4,0.7874015748031497,0.13636349999999986,3.818178
0,note_on,60,C4,0.7874015748031497,0.13636349999999986,4.363632
0,note_on,60,C4,0.7874015748031497,0.13636349999999986,4.909086
0,note_on,60,C4,0.7874015748031497,0.13636349999999986,5.45454
0,note_on,60,C4,0.7874015748031497,0.13636349999999986,5.999994
0,note_on,60,C4,0.7874015748031497,0.13636349999999986,6.272721
0,note_on,60,C4,0.7874015748031497,0.13636349999999986,6.818175
0,note_on,60,C4,0.7874015748031497,0.13636349999999986,7.090902
0,note_on,60,C4,0.7874015748031497,0.13636350000000075,7.3636289999999995
0,note_on,60,C4,0.7874015748031497,0.2727269999999997,7.636356
0,note_on,60,C4,0.7874015748031497,0.2727269999999997,8.18181
0,note_on,60,C4,0.7874015748031497,0.4090904999999996,8.727264
0,note_on,60,C4,0.7874015748031497,0.13636349999999986,9.1363545
0,note_on,60,C4,0.7874015748031497,0.13636350000000164,9.545444999999999
0,note_on,60,C4,0.7874015748031497,0.13636349999999986,10.090899
0,note_on,60,C4,0.7874015748031497,0.13636349999999986,10.363626
0,note_on,60,C4,0.7874015748031497,0.13636349999999986,10.90908
0,note_on,60,C4,0.7874015748031497,0.13636349999999986,11.454534
0,note_on,60,C4,0.7874015748031497,0.13636349999999986,11.999988
0,note_on,60,C4,0.7874015748031497,0.13636349999999986,12.545442
0,note_on,60,C4,0.7874015748031497,0.13636349999999986,13.090896
0,note_on,60,C4,0.7874015748031497,0.13636349999999986,13.63635
0,note_on,60,C4,0.7874015748031497,0.13636349999999986,14.181804
0,note_on,60,C4,0.7874015748031497,0.13636350000000164,14.727257999999999
0,note_on,60,C4,0.7874015748031497,1.0909080000000007,15.272712
0,note_on,60,C4,0.7874015748031497,0.13636349999999808,16.636347
0,note_on,60,C4,0.7874015748031497,0.13636349999999808,16.909074
0,note_on,60,C4,0.7874015748031497,1.2272715000000005,17.181801
0,note_on,60,C4,0.7874015748031497,0.2727269999999997,18.818163
0,note_on,60,C4,0.7874015748031497,0.40909050000000136,19.2272535
0,note_on,60,C4,0.7874015748031497,0.13636349999999808,19.636344
0,note_on,60,C4,0.7874015748031497,0.13636349999999808,20.454525
0,note_on,60,C4,0.7874015748031497,0.2727269999999997,20.727252
0,note_on,60,C4,0.7874015748031497,0.13636350000000164,21.272706
0,note_on,60,C4,0.7874015748031497,0.13636350000000164,21.81816
0,note_on,60,C4,0.7874015748031497,0.13636350000000164,22.363614
0,note_on,60,C4,0.7874015748031497,0.13636349999999808,22.909068
0,note_on,60,C4,0.7874015748031497,0.13636349999999808,23.181795
0,note_on,60,C4,0.7874015748031497,0.13636349999999808,23.454522
0,note_on,60,C4,0.7874015748031497,0.13636349999999808,23.999976
0,note_on,60,C4,0.7874015748031497,0.13636350000000164,24.54543
0,note_on,60,C4,0.7874015748031497,0.13636350000000164,24.818157
0,note_on,60,C4,0.7874015748031497,0.2727269999999997,25.363611
0,note_on,60,C4,0.7874015748031497,0.2727269999999997,25.636338
0,note_on,60,C4,0.7874015748031497,0.13636349999999808,26.181792
0,note_on,60,C4,0.7874015748031497,0.13636350000000164,26.5908825
0,note_on,60,C4,0.7874015748031497,0.13636349999999808,26.999973
0,note_on,60,C4,0.7874015748031497,0.13636349999999808,27.2727
0,note_on,60,C4,0.7874015748031497,0.13636350000000164,27.818154
0,note_on,60,C4,0.7874015748031497,0.13636350000000164,28.363608
0,note_on,60,C4,0.7874015748031497,0.2727269999999997,29.181789
0,note_on,60,C4,0.7874015748031497,0.2727270000000033,29.454515999999998
0,note_on,60,C4,0.7874015748031497,0.13636349999999808,29.99997
0,note_on,60,C4,0.7874015748031497,0.13636349999999808,30.272697
0,note_on,60,C4,0.7874015748031497,0.13636349999999808,30.545424
0,note_on,60,C4,0.7874015748031497,0.13636350000000164,31.363605
0,note_on,60,C4,0.7874015748031497,0.2727269999999997,31.636332
0,note_on,60,C4,0.7874015748031497,0.13636349999999453,32.181786
0,note_on,60,C4,0.7874015748031497,0.13636350000000164,32.454513
0,note_on,60,C4,0.7874015748031497,0.13636349999999453,32.72724
0,note_on,60,C4,0.7874015748031497,0.13636350000000164,33.272694
0,note_on,60,C4,0.7874015748031497,0.2727270000000033,33.545421
0,note_on,60,C4,0.7874015748031497,0.13636350000000164,33.818148
0,note_on,60,C4,0.7874015748031497,0.13636350000000164,34.363602
0,note_on,60,C4,0.7874015748031497,0.13636350000000164,34.636328999999996
0,note_on,60,C4,0.7874015748031497,0.13636350000000164,34.909056
0,note_on,60,C4,0.7874015748031497,0.13636350000000164,35.45451
0,note_on,60,C4,0.7874015748031497,0.13636349999999453,35.727237
0,note_on,60,C4,0.7874015748031497,0.13636350000000164,35.999964
0,note_on,60,C4,0.7874015748031497,0.13636349999999453,36.272691
0,note_on,60,C4,0.7874015748031497,0.13636350000000164,36.545418
0,note_on,60,C4,0.7874015748031497,0.13636350000000164,36.818145
0,note_on,60,C4,0.7874015748031497,0.13636350000000164,37.090872
0,note_on,60,C4,0.7874015748031497,0.13636350000000164,37.636326
0,note_on,60,C4,0.7874015748031497,0.13636350000000164,38.181779999999996
0,note_on,60,C4,0.7874015748031497,0.13636350000000164,38.454507
0,note_on,60,C4,0.7874015748031497,0.13636349999999453,38.727234
0,note_on,60,C4,0.7874015748031497,0.13636350000000164,38.999961
0,note_on,60,C4,0.7874015748031497,0.13636350000000164,39.1363245
0,note_on,60,C4,0.7874015748031497,0.13636349999999453,39.272688
0,note_on,60,C4,0.7874015748031497,0.13636349999999453,39.818142
0,note_on,60,C4,0.7874015748031497,0.13636350000000164,40.363596
0,note_on,60,C4,0.7874015748031497,0.13636350000000164,40.636323
0,note_on,60,C4,0.7874015748031497,0.13636350000000164,40.90905
0,note_on,60,C4,0.7874015748031497,0.13636350000000164,41.454504
0,note_on,60,C4,0.7874015748031497,0.13636350000000164,41.999958
0,note_on,60,C4,0.7874015748031497,0.13636350000000164,42.545412
0,note_on,60,C4,0.7874015748031497,0.13636349999999453,42.818139
0,note_on,60,C4,0.7874015748031497,0.13636350000000164,43.090866
0,note_on,60,C4,0.7874015748031497,0.13636350000000164,43.63632
0,note_on,60,C4,0.7874015748031497,0.13636350000000164,44.181774
0,note_on,60,C4,0.7874015748031497,0.13636349999999453,44.5908645
0,note_on,60,C4,0.7874015748031497,0.13636350000000164,44.999955
0,note_on,60,C4,0.7874015748031497,0.13636350000000164,45.545409
0,note_on,60,C4,0.7874015748031497,0.13636349999999453,45.818136
0,note_on,60,C4,0.7874015748031497,0.13636349999999453,46.36359
0,note_on,60,C4,0.7874015748031497,0.13636350000000164,46.636317
0,note_on,60,C4,0.7874015748031497,0.13636349999999453,46.909044
0,note_on,60,C4,0.7874015748031497,0.13636350000000164,47.3181345
0,note_on,60,C4,0.7874015748031497,0.2727270000000033,47.727225
0,note_on,60,C4,0.7874015748031497,1.9090890000000016,47.999952
0,note_on,60,C4,0.7874015748031497,0.13636350000000164,50.181768
0,note_on,60,C4,0.7874015748031497,0.13636350000000164,50.727222
0,note_on,60,C4,0.7874015748031497,0.13636350000000164,51.272676
0,note_on,60,C4,0.7874015748031497,0.13636350000000164,51.545403
0,note_on,60,C4,0.7874015748031497,0.13636350000000164,51.81813
0,note_on,60,C4,0.7874015748031497,0.13636349999999453,52.363584
0,note_on,60,C4,0.7874015748031497,0.13636349999999453,52.909038
0,note_on,60,C4,0.7874015748031497,0.13636350000000164,53.181765
0,note_on,60,C4,0.7874015748031497,0.13636349999999453,53.454492
0,note_on,60,C4,0.7874015748031497,0.13636350000000164,53.999946
0,note_on,60,C4,0.7874015748031497,0.13636350000000164,54.272673
0,note_on,60,C4,0.7874015748031497,0.13636350000000164,54.5454
0,note_on,60,C4,0.7874015748031497,0.5454539999999994,54.9544905
0,note_on,60,C4,0.7874015748031497,0.13636349999999453,55.909035
0,note_on,60,C4,0.7874015748031497,0.13636350000000164,56.181762
0,note_on,60,C4,0.7874015748031497,0.13636349999999453,56.454489
0,note_on,60,C4,0.7874015748031497,0.13636350000000164,56.727216
0,note_on,60,C4,0.7874015748031497,0.13636349999999453,56.999943
0,note_on,60,C4,0.7874015748031497,0.13636350000000164,57.545397
0,note_on,60,C4,0.7874015748031497,0.13636350000000164,58.090851
0,note_on,60,C4,0.7874015748031497,0.13636350000000164,58.363578
0,note_on,60,C4,0.7874015748031497,0.13636350000000164,58.636305
0,note_on,60,C4,0.7874015748031497,0.13636350000000164,58.909031999999996
0,note_on,60,C4,0.7874015748031497,0.13636350000000164,59.181759
0,note_on,60,C4,0.7874015748031497,0.13636349999999453,59.454486
0,note_on,60,C4,0.7874015748031497,0.13636349999999453,59.99994
0,note_on,60,C4,0.7874015748031497,0.13636349999999453,60.545394
0,note_on,60,C4,0.7874015748031497,0.13636350000000164,61.090848
0,note_on,60,C4,0.7874015748031497,0.13636350000000164,61.363575
0,note_on,60,C4,0.7874015748031497,0.13636350000000164,61.636302
0,note_on,60,C4,0.7874015748031497,0.13636350000000164,62.181756
0,note_on,60,C4,0.7874015748031497,0.13636350000000164,62.454482999999996
0,note_on,60,C4,0.7874015748031497,0.13636350000000164,62.72721
0,note_on,60,C4,0.7874015748031497,0.13636349999999453,62.999937
0,note_on,60,C4,0.7874015748031497,0.13636350000000164,63.272664
0,note_on,60,C4,0.7874015748031497,0.13636350000000164,63.818118
0,note_on,60,C4,0.7874015748031497,0.13636350000000164,64.090845
0,note_on,60,C4,0.7874015748031497,0.13636349999998743,64.363572
0,note_on,60,C4,0.7874015748031497,0.13636350000000164,64.636299
0,note_on,60,C4,0.7874015748031497,0.13636350000000164,64.909026
0,note_on,60,C4,0.7874015748031497,0.13636350000000164,65.181753
0,note_on,60,C4,0.7874015748031497,0.13636350000000164,65.45448
0,note_on,60,C4,0.7874015748031497,0.13636350000000164,65.72720699999999
0,note_on,60,C4,0.7874015748031497,0.13636350000000164,65.999934
0,note_on,60,C4,0.7874015748031497,0.13636350000000164,66.545388
0,note_on,60,C4,0.7874015748031497,0.13636349999998743,66.818115
0,note_on,60,C4,0.7874015748031497,0.13636350000000164,67.090842
0,note_on,60,C4,0.7874015748031497,0.13636350000000164,67.636296
0,note_on,60,C4,0.7874015748031497,0.13636350000000164,68.18175
0,note_on,60,C4,0.7874015748031497,0.13636350000000164,68.727204
0,note_on,60,C4,0.7874015748031497,0.13636350000000164,69.27265799999999
0,note_on,60,C4,0.7874015748031497,0.13636350000000164,69.545385
0,note_on,60,C4,0.7874015748031497,0.13636350000000164,69.818112
0,note_on,60,C4,0.7874015748031497,0.13636349999998743,70.363566
0,note_on,60,C4,0.7874015748031497,0.13636350000000164,70.636293
0,note_on,60,C4,0.7874015748031497,0.13636350000000164,70.90902
0,note_on,60,C4,0.7874015748031497,0.13636350000000164,71.454474
0,note_on,60,C4,0.7874015748031497,0.13636350000000164,71.999928
0,note_on,60,C4,0.7874015748031497,0.13636350000000164,72.545382
0,note_on,60,C4,0.7874015748031497,0.13636350000000164,72.81810899999999
0,note_on,60,C4,0.7874015748031497,0.13636350000000164,73.090836
0,note_on,60,C4,0.7874015748031497,0.13636350000000164,73.363563
0,note_on,60,C4,0.7874015748031497,0.13636350000000164,73.63629
0,note_on,60,C4,0.7874015748031497,0.13636349999998743,73.909017
0,note_on,60,C4,0.7874015748031497,0.13636350000000164,74.181744
0,note_on,60,C4,0.7874015748031497,0.13636350000000164,74.727198
0,note_on,60,C4,0.7874015748031497,0.13636350000000164,74.999925
0,note_on,60,C4,0.7874015748031497,0.13636350000000164,75.272652
0,note_on,60,C4,0.7874015748031497,0.13636350000000164,75.545379
0,note_on,60,C4,0.7874015748031497,0.5454539999999923,75.818106
0,note_on,60,C4,0.7874015748031497,0.13636350000000164,76.36355999999999
0,note_on,60,C4,0.7874015748031497,0.13636350000000164,76.909014
0,note_on,60,C4,0.7874015748031497,0.13636349999998743,77.454468
0,note_on,60,C4,0.7874015748031497,0.13636350000000164,77.727195
0,note_on,60,C4,0.7874015748031497,0.13636350000000164,77.999922
0,note_on,60,C4,0.7874015748031497,0.13636350000000164,78.545376
0,note_on,60,C4,0.7874015748031497,0.13636350000000164,79.363557
0,note_on,60,C4,0.7874015748031497,0.13636350000000164,79.636284
0,note_on,60,C4,0.7874015748031497,0.13636350000000164,80.181738
0,note_on,60,C4,0.7874015748031497,0.13636350000000164,80.727192
0,note_on,60,C4,0.7874015748031497,0.13636350000000164,81.8181
0,note_on,60,C4,0.7874015748031497,0.13636350000000164,82.363554
0,note_on,60,C4,0.7874015748031497,0.13636350000000164,82.4999175
0,note_on,60,C4,0.7874015748031497,0.13636350000000164,82.909008
0,note_on,60,C4,0.7874015748031497,0.13636350000000164,83.45446199999999
0,note_on,60,C4,0.7874015748031497,0.13636350000000164,83.727189
0,note_on,60,C4,0.7874015748031497,0.13636350000000164,83.999916
0,note_on,60,C4,0.7874015748031497,0.13636349999998743,84.54537
0,note_on,60,C4,0.7874015748031497,0.13636350000000164,84.818097
0,note_on,60,C4,0.7874015748031497,0.13636350000000164,85.090824
0,note_on,60,C4,0.7874015748031497,0.5454539999999923,85.4999145
0,note_on,60,C4,0.7874015748031497,0.13636350000000164,86.454459
0,note_on,60,C4,0.7874015748031497,0.13636350000000164,86.727186
0,note_on,60,C4,0.7874015748031497,0.13636350000000164,86.99991299999999
0,note_on,60,C4,0.7874015748031497,0.13636350000000164,87.27264
0,note_on,60,C4,0.7874015748031497,0.13636350000000164,87.545367
0,note_on,60,C4,0.7874015748031497,0.13636349999998743,88.090821
0,note_on,60,C4,0.7874015748031497,0.13636350000000164,88.636275
0,note_on,60,C4,0.7874015748031497,0.13636350000000164,88.909002
0,note_on,60,C4,0.7874015748031497,0.13636350000000164,89.181729
0,note_on,60,C4,0.7874015748031497,0.13636350000000164,89.454456
0,note_on,60,C4,0.7874015748031497,0.13636350000000164,89.727183
0,note_on,60,C4,0.7874015748031497,0.13636350000000164,89.99991
0,note_on,60,C4,0.7874015748031497,0.13636350000000164,90.54536399999999
0,note_on,60,C4,0.7874015748031497,0.13636350000000164,91.090818
0,note_on,60,C4,0.7874015748031497,0.13636349999998743,91.636272
0,note_on,60,C4,0.7874015748031497,0.13636350000000164,91.908999
0,note_on,60,C4,0.7874015748031497,0.13636350000000164,92.181726
0,note_on,60,C4,0.7874015748031497,0.13636350000000164,92.72718
0,note_on,60,C4,0.7874015748031497,0.13636350000000164,92.999907
0,note_on,60,C4,0.7874015748031497,0.13636350000000164,93.272634
0,note_on,60,C4,0.7874015748031497,0.13636350000000164,93.545361
0,note_on,60,C4,0.7874015748031497,0.13636350000000164,93.818088
0,note_on,60,C4,0.7874015748031497,0.13636350000000164,94.363542
0,note_on,60,C4,0.7874015748031497,0.13636350000000164,94.636269
0,note_on,60,C4,0.7874015748031497,0.13636350000000164,94.908996
0,note_on,60,C4,0.7874015748031497,0.13636349999998743,95.181723
0,note_on,60,C4,0.7874015748031497,0.13636350000000164,95.45445
0,note_on,60,C4,0.7874015748031497,0.13636350000000164,95.727177
0,note_on,60,C4,0.7874015748031497,0.13636350000000164,95.999904
0,note_on,60,C4,0.7874015748031497,0.13636350000000164,96.272631
0,note_on,60,C4,0.7874015748031497,0.13636350000000164,96.545358
0,note_on,60,C4,0.7874015748031497,0.13636350000000164,97.090812
0,note_on,60,C4,0.7874015748031497,0.13636350000000164,97.363539
0,note_on,60,C4,0.7874015748031497,0.13636350000000164,97.63626599999999
0,note_on,60,C4,0.7874015748031497,0.13636350000000164,98.18172
0,note_on,60,C4,0.7874015748031497,0.13636349999998743,98.727174
0,note_on,60,C4,0.7874015748031497,0.13636350000000164,99.272628
0,note_on,60,C4,0.7874015748031497,0.13636350000000164,99.818082
0,note_on,60,C4,0.7874015748031497,0.13636350000000164,100.090809
0,note_on,60,C4,0.7874015748031497,0.13636350000000164,100.363536
0,note_on,60,C4,0.7874015748031497,0.13636350000000164,100.90899
0,note_on,60,C4,0.7874015748031497,0.13636350000000164,101.454444
0,note_on,60,C4,0.7874015748031497,0.13636350000000164,101.727171
0,note_on,60,C4,0.7874015748031497,0.13636350000000164,101.999898
0,note_on,60,C4,0.7874015748031497,0.13636349999998743,102.272625
0,note_on,60,C4,0.7874015748031497,0.13636350000000164,102.545352
0,note_on,60,C4,0.7874015748031497,0.13636350000000164,103.090806
0,note_on,60,C4,0.7874015748031497,0.13636350000000164,103.63626
0,note_on,60,C4,0.7874015748031497,0.13636350000000164,103.908987
0,note_on,60,C4,0.7874015748031497,0.13636350000000164,104.181714
0,note_on,60,C4,0.7874015748031497,0.13636350000000164,104.454441
0,note_on,60,C4,0.7874015748031497,0.13636349999998743,104.727168
0,note_on,60,C4,0.7874015748031497,0.13636350000000164,105.272622
0,note_on,60,C4,0.7874015748031497,0.13636349999998743,105.818076
0,note_on,60,C4,0.7874015748031497,0.13636350000000164,106.090803
0,note_on,60,C4,0.7874015748031497,0.13636350000000164,106.36353
0,note_on,60,C4,0.7874015748031497,0.13636350000000164,106.636257
0,note_on,60,C4,0.7874015748031497,0.13636350000000164,106.908984
0,note_on,60,C4,0.7874015748031497,0.13636349999998743,108.272619
0,note_on,60,C4,0.7874015748031497,0.13636350000000164,108.545346
0,note_on,60,C4,0.7874015748031497,0.13636350000000164,108.818073
0,note_on,60,C4,0.7874015748031497,0.13636350000000164,109.0908
0,note_on,60,C4,0.7874015748031497,0.13636350000000164,109.636254
0,note_on,60,C4,0.7874015748031497,0.13636350000000164,110.181708
0,note_on,60,C4,0.7874015748031497,0.13636350000000164,110.454435
0,note_on,60,C4,0.7874015748031497,0.13636350000000164,110.72716199999999
0,note_on,60,C4,0.7874015748031497,0.13636350000000164,110.999889
0,note_on,60,C4,0.7874015748031497,0.13636350000000164,111.272616
0,note_on,60,C4,0.7874015748031497,0.13636349999998743,111.81807
0,note_on,60,C4,0.7874015748031497,0.13636350000000164,112.363524
0,note_on,60,C4,0.7874015748031497,0.13636350000000164,112.636251
0,note_on,60,C4,0.7874015748031497,0.13636349999998743,112.908978
0,note_on,60,C4,0.7874015748031497,0.13636350000000164,113.454432
0,note_on,60,C4,0.7874015748031497,0.13636350000000164,113.999886
0,note_on,60,C4,0.7874015748031497,0.13636350000000164,114.27261299999999
0,note_on,60,C4,0.7874015748031497,0.13636350000000164,114.54534
0,note_on,60,C4,0.7874015748031497,0.13636350000000164,114.818067
0,note_on,60,C4,0.7874015748031497,0.13636350000000164,115.090794
0,note_on,60,C4,0.7874015748031497,0.13636349999998743,115.363521
0,note_on,60,C4,0.7874015748031497,0.13636350000000164,115.636248
0,note_on,60,C4,0.7874015748031497,0.13636350000000164,116.181702
0,note_on,60,C4,0.7874015748031497,0.13636350000000164,116.727156
0,note_on,60,C4,0.7874015748031497,0.13636350000000164,117.27261
0,note_on,60,C4,0.7874015748031497,0.13636350000000164,117.81806399999999
0,note_on,60,C4,0.7874015748031497,0.13636350000000164,118.363518
0,note_on,60,C4,0.7874015748031497,0.13636350000000164,118.636245
0,note_on,60,C4,0.7874015748031497,0.13636349999998743,118.908972
0,note_on,60,C4,0.7874015748031497,0.13636350000000164,119.454426
0,note_on,60,C4,0.7874015748031497,0.13636350000000164,119.727153
0,note_on,60,C4,0.7874015748031497,0.13636349999998743,119.99988
0,note_on,60,C4,0.7874015748031497,0.5454540000000065,120.4089705
0,note_on,60,C4,0.7874015748031497,0.13636350000000164,121.36351499999999
0,note_on,60,C4,0.7874015748031497,0.13636350000000164,121.636242
0,note_on,60,C4,0.7874015748031497,0.13636350000000164,121.908969
0,note_on,60,C4,0.7874015748031497,0.13636350000000164,122.181696
0,note_on,60,C4,0.7874015748031497,0.13636349999998743,122.454423
0,note_on,60,C4,0.7874015748031497,0.13636350000000164,122.999877
0,note_on,60,C4,0.7874015748031497,0.13636349999998743,123.545331
0,note_on,60,C4,0.7874015748031497,0.13636350000000164,123.818058
0,note_on,60,C4,0.7874015748031497,0.13636350000000164,124.090785
0,note_on,60,C4,0.7874015748031497,0.13636350000000164,124.363512
0,note_on,60,C4,0.7874015748031497,0.13636350000000164,124.636239
0,note_on,60,C4,0.7874015748031497,0.13636350000000164,124.90896599999999
0,note_on,60,C4,0.7874015748031497,0.13636350000000164,125.45442
0,note_on,60,C4,0.7874015748031497,0.13636349999998743,125.999874
0,note_on,60,C4,0.7874015748031497,0.13636350000000164,126.545328
0,note_on,60,C4,0.7874015748031497,0.13636350000000164,126.818055
0,note_on,60,C4,0.7874015748031497,0.13636349999998743,127.090782
0,note_on,60,C4,0.7874015748031497,0.13636350000000164,127.636236
0,note_on,60,C4,0.7874015748031497,0.13636349999998743,127.908963
0,note_on,60,C4,0.7874015748031497,0.13636349999998743,128.18169
0,note_on,60,C4,0.7874015748031497,0.13636349999998743,128.454417
0,note_on,60,C4,0.7874015748031497,0.13636349999998743,128.727144
0,note_on,60,C4,0.7874015748031497,0.13636350000001585,129.272598
0,note_on,60,C4,0.7874015748031497,0.13636350000001585,129.545325
0,note_on,60,C4,0.7874015748031497,0.13636350000001585,129.818052
0,note_on,60,C4,0.7874015748031497,0.13636349999998743,130.090779
0,note_on,60,C4,0.7874015748031497,0.13636349999998743,130.363506
0,note_on,60,C4,0.7874015748031497,0.13636349999998743,130.636233
0,note_on,60,C4,0.7874015748031497,0.13636349999998743,130.90896
0,note_on,60,C4,0.7874015748031497,0.13636349999998743,131.181687
0,note_on,60,C4,0.7874015748031497,0.13636350000001585,131.45441399999999
0,note_on,60,C4,0.7874015748031497,0.13636350000001585,131.999868
0,note_on,60,C4,0.7874015748031497,0.13636350000001585,132.272595
0,note_on,60,C4,0.7874015748031497,0.13636349999998743,132.545322
0,note_on,60,C4,0.7874015748031497,0.13636349999998743,133.090776
0,note_on,60,C4,0.7874015748031497,0.13636349999998743,133.63623
0,note_on,60,C4,0.7874015748031497,0.13636350000001585,134.181684
0,note_on,60,C4,0.7874015748031497,0.13636350000001585,134.727138
0,note_on,60,C4,0.7874015748031497,0.13636349999998743,134.999865